<?xml version="1.0" standalone="no"?><!DOCTYPE svg PUBLIC "-//W3C//DTD SVG 1.1//EN" "http://www.w3.org/Graphics/SVG/1.1/DTD/svg11.dtd"><svg t="1605015747074" class="icon" viewBox="0 0 1024 1024" version="1.1" xmlns="http://www.w3.org/2000/svg" p-id="1355" xmlns:xlink="http://www.w3.org/1999/xlink" width="200" height="200"><defs><style type="text/css"></style></defs><path d="M510.72 577.184h447.488c28.096 0 34.112 5.888 33.792 33.952a1734.944 1734.944 0 0 1-2.176 60.64c-1.44 30.496-31.232 54.176-60.96 48.608-10.624-1.984-21.28-3.936-31.776-6.528-9.408-2.304-13.376 0.48-12.992 10.56 0.608 15.008 1.28 30.048 0.512 44.992-1.088 21.28-0.64 43.168-5.76 63.584-13.376 53.92-68.032 94.944-123.04 94.944-162.4 0.064-324.8 0.096-487.168 0-68.576-0.032-128.16-60.32-128.544-129.728-0.128-24.736-0.256-49.472 0-74.208 0.064-8.8-2.112-12.736-11.904-10.432a213.696 213.696 0 0 1-34.304 5.536c-34.176 2.336-56.64-16.96-59.808-51.36-1.536-16.896-1.92-33.92-2.048-50.88-0.32-36.768 2.688-39.68 38.4-39.68h440.32z m421.056 41.984H95.776c-3.2 0-6.432 0.16-9.632 0-7.488-0.384-11.136 2.688-10.88 10.656 0.352 9.728-0.128 19.456 0.192 29.184 0.416 14.24 7.04 19.328 21.088 16.64 17.664-3.328 35.328-6.784 53.056-9.952 23.456-4.224 33.92 4.8 33.984 29.024 0 27.968-0.096 55.968 0.064 83.936 0.064 10.88-0.704 22.08 1.376 32.64 9.152 46.4 43.296 74.56 93.12 74.752 155.968 0.576 311.936 0.448 467.936 0 26.592-0.096 51.2-7.84 70.72-28.16 19.2-20.032 25.12-44.704 25.6-71.2 0.576-33.248 0.128-66.496 0.384-99.744 0.096-14.496 7.104-21.856 21.44-21.664 8.736 0.096 17.536 1.568 26.112 3.328 18.656 3.808 37.216 8.192 58.24 12.896v-41.44c-0.032-19.584-0.064-20.832-16.8-20.896zM300.032 674.752c12.832-0.16 20.672 6.208 20.992 19.616 0.64 26.72 0.448 53.472-0.128 80.224a20.064 20.064 0 0 1-20.512 19.52c-11.168 0-20.224-8.832-20.576-20.928-0.384-13.376-0.096-26.752-0.096-40.128 0-12.576-0.288-25.152 0.096-37.696 0.384-13.28 7.744-20.416 20.224-20.608z m416.736-347.648c57.632 0.224 104.896 23.04 139.744 70.304 19.072 25.888 27.36 55.616 29.536 87.232 1.024 14.976-5.28 22.496-19.904 25.6a87.392 87.392 0 0 1-17.856 1.6c-111.872 0.128-223.776 0.096-335.648 0.096H179.424c-45.152 0-42.688-13.376-38.336-46.432 9.6-72.96 71.04-129.664 144-136.256 14.72-1.344 29.536-2.176 44.32-2.208 129.12-0.16 258.24-0.416 387.36 0.064z m-216.8 41.792c-69.696 0.32-139.392 0.768-209.056 2.144-44.896 0.896-93.376 41.824-104.192 86.08-0.736 2.976-0.512 6.176-0.8 9.728h654.08c-1.152-5.28-1.568-9.248-2.848-12.928-8.992-25.984-24.224-47.136-46.944-62.848-24.928-17.216-53.12-21.824-82.24-22.016a19888.416 19888.416 0 0 0-208-0.16z m51.2-265.92c8.544 9.024 7.456 20.032-3.424 30.752-7.424 7.36-15.2 14.368-22.816 21.536-16.96 16-18.656 30.08-5.792 49.312 6.912 10.4 14.464 20.384 21.024 31.04 6.656 10.848 5.024 19.456-3.968 26.816-7.552 6.208-20.928 6.656-27.456-0.96-17.536-20.544-34.272-41.856-40.608-69.184-0.8-3.52-0.608-7.232-0.896-10.912 1.312-18.24 6.048-34.816 20.48-47.488 10.88-9.536 20.896-20.096 31.552-29.888 11.296-10.368 22.784-10.56 31.904-0.992z m176.896-3.36c11.968 7.552 14.048 19.968 4.16 30.656-9.024 9.728-19.136 18.368-28.48 27.776-14.784 14.848-16 27.936-4.384 45.44 7.552 11.424 16.128 22.24 22.752 34.144 8.128 14.624-1.28 29.248-21.6 29.184-2.112-1.152-8.768-2.656-12.096-6.816-15.712-19.808-32.416-39.2-38.304-64.96-4.704-20.704-0.224-39.744 13.376-55.36 11.616-13.248 25.184-24.768 38.272-36.672 7.712-7.04 16.608-9.536 26.304-3.392z m-357.6 3.84c8.192 9.152 7.264 19.104-3.456 29.888-8.512 8.544-17.792 16.32-26.304 24.896-13.056 13.056-14.592 28.48-4.544 43.936 7.296 11.136 15.488 21.696 22.4 33.056 9.28 15.264 0.032 31.584-21.12 31.52-2.112-1.152-8.864-2.624-12.032-6.88-15.68-20.864-32.864-40.896-38.656-67.744-4.32-19.84 0.832-37.12 13.728-51.616 11.744-13.248 24.896-25.248 37.888-37.248 10.752-9.92 23.456-9.504 32.096 0.16z" p-id="1356"></path></svg>