<?xml version="1.0" standalone="no"?><!DOCTYPE svg PUBLIC "-//W3C//DTD SVG 1.1//EN" "http://www.w3.org/Graphics/SVG/1.1/DTD/svg11.dtd"><svg t="1605017235638" class="icon" viewBox="0 0 1024 1024" version="1.1" xmlns="http://www.w3.org/2000/svg" p-id="6610" xmlns:xlink="http://www.w3.org/1999/xlink" width="200" height="200"><defs><style type="text/css"></style></defs><path d="M760.896 605.712l13.728-13.712h66.752l42.736 42.752A72.128 72.128 0 0 0 935.424 656 72.64 72.64 0 0 0 1008 583.44a72.064 72.064 0 0 0-21.264-51.312L966.624 512l20.112-20.112A72.096 72.096 0 0 0 1008 440.576 72.656 72.656 0 0 0 935.424 368a72.064 72.064 0 0 0-51.312 21.264L841.376 432h-66.752l-13.728-13.728C604.672 262.032 396.944 176 176 176 86.288 176 16 323.584 16 512c0 136.256 36.848 250.832 91.136 304H64c-26.464 0-48 21.536-48 48s21.536 48 48 48h4.464l13.76 41.296A79.92 79.92 0 0 0 158.128 1008h707.744a79.888 79.888 0 0 0 75.888-54.704L955.536 912H960c26.464 0 48-21.536 48-48s-21.536-48-48-48h-16.416A79.168 79.168 0 0 0 960 768c0-39.248-28.48-71.84-65.824-78.56A64.016 64.016 0 0 0 832 640c-14.768 0-28.8 5.056-40 14.064a63.952 63.952 0 0 0-42.016-14.032 63.264 63.264 0 0 0-7.68-17.648 15.584 15.584 0 0 0 4.4-2.816c4.784-4.544 9.52-9.168 14.192-13.856zM848 464c4.24 0 8.32-1.68 11.312-4.688l47.424-47.424A40.32 40.32 0 0 1 935.424 400 40.64 40.64 0 0 1 976 440.576a40.32 40.32 0 0 1-11.888 28.688l-31.424 31.424a15.984 15.984 0 0 0 0 22.624l31.424 31.44A40.32 40.32 0 0 1 976 583.44 40.64 40.64 0 0 1 935.424 624a40.336 40.336 0 0 1-28.688-11.872l-47.424-47.44A15.952 15.952 0 0 0 848 560h-64v-96h64z m-109.728-23.104l13.728 13.728v114.752l-13.728 13.712c-4.512 4.496-9.056 8.944-13.648 13.328a15.76 15.76 0 0 0-3.504 5.024A63.44 63.44 0 0 0 688 592a64 64 0 0 0-49.552 23.744 64.896 64.896 0 0 0-58.4-1.312A80.016 80.016 0 0 0 512 576c-44.112 0-80 35.888-80 80-35.296 0-64 28.704-64 64 0 0.752 0.336 1.408 0.432 2.144C340.688 729.136 320 754.096 320 784c0 6.336 1.2 12.336 2.928 18.112-24.672 4.64-49.568 8.16-74.608 10.448C300.704 757.952 336 645.36 336 512c0-133.44-35.344-246.08-87.776-300.64 185.136 16.56 357.024 96.512 490.048 229.536zM48 512c0-181.84 66.192-304 128-304s128 122.16 128 304-66.192 304-128 304-128-122.16-128-304z m928 352c0 8.832-7.184 16-16 16h-80a16 16 0 1 0 0 32h41.792l-10.4 31.168A47.888 47.888 0 0 1 865.872 976H158.128a47.936 47.936 0 0 1-45.536-32.832L102.208 912H816a16 16 0 1 0 0-32H64a16.016 16.016 0 0 1 0-32h896c8.816 0 16 7.168 16 16zM778.672 686.368c5.92 8.944 20.752 8.944 26.672 0A31.92 31.92 0 0 1 832 672c12.832 0 23.84 7.632 28.928 18.544C826.048 699.152 800 730.496 800 768a16 16 0 1 0 32 0c0-26.464 21.536-48 48-48s48 21.536 48 48-21.536 48-48 48H384c-17.648 0-32-14.352-32-32s14.352-32 32-32 32 14.352 32 32a16 16 0 1 0 32 0c0-29.904-20.688-54.864-48.432-61.856 0.096-0.736 0.432-1.392 0.432-2.144 0-17.648 14.352-32 32-32 4.416 0 8.8 0.976 13.04 2.864a16 16 0 0 0 21.728-19.696A46.928 46.928 0 0 1 464 656c0-26.464 21.536-48 48-48 21.296 0 40.192 14.464 45.984 35.168a16 16 0 0 0 26.96 6.768c12.4-12.928 34.16-12.816 46.416 0.4a16.048 16.048 0 0 0 26.752-5.344A32.048 32.048 0 0 1 688 624c17.648 0 32 14.352 32 31.552a132.112 132.112 0 0 0-0.272 2.496 15.952 15.952 0 0 0 21.424 16.016c15.648-5.696 29.632 0.4 37.52 12.304z" fill="" p-id="6611"></path><path d="M229.808 726.992C245.568 694.496 272 623.36 272 512c0-60.24-7.648-115.664-22.704-164.704a16 16 0 0 0-30.592 9.408C232.64 402.048 240 455.744 240 512c0 104.976-24.416 171.008-38.992 201.008a16 16 0 0 0 28.8 13.984zM143.568 289.6a16.032 16.032 0 0 0-21.376 7.408C106.432 329.52 80 400.656 80 512c0 111.36 26.432 182.496 42.192 214.992a16 16 0 1 0 28.784-13.984C136.416 683.008 112 616.976 112 512c0-104.96 24.416-170.992 38.992-201.008a16.032 16.032 0 0 0-7.424-21.392zM176 432a16 16 0 0 0-16 16v128a16 16 0 1 0 32 0v-128a16 16 0 0 0-16-16z" fill="" p-id="6612"></path><path d="M512 656m-16 0a16 16 0 1 0 32 0 16 16 0 1 0-32 0Z" fill="" p-id="6613"></path><path d="M672 720m-16 0a16 16 0 1 0 32 0 16 16 0 1 0-32 0Z" fill="" p-id="6614"></path><path d="M880 768m-16 0a16 16 0 1 0 32 0 16 16 0 1 0-32 0Z" fill="" p-id="6615"></path><path d="M560 768m-16 0a16 16 0 1 0 32 0 16 16 0 1 0-32 0Z" fill="" p-id="6616"></path><path d="M388.688 507.312a15.952 15.952 0 0 0 22.624 0l28.688-28.688 41.376 41.376-12.688 12.688a15.984 15.984 0 1 0 22.624 22.624l12.688-12.688 12.688 12.688a15.952 15.952 0 0 0 22.624 0 15.984 15.984 0 0 0 0-22.624l-12.688-12.688 41.376-41.376 28.688 28.688a15.952 15.952 0 0 0 22.624 0 15.984 15.984 0 0 0 0-22.624L590.624 456l28.688-28.688a15.984 15.984 0 1 0-22.624-22.624L568 433.376 526.624 392l12.688-12.688a15.984 15.984 0 1 0-22.624-22.624l-12.688 12.688-12.688-12.688a15.984 15.984 0 1 0-22.624 22.624l12.688 12.688-41.376 41.376-28.688-28.688a15.984 15.984 0 1 0-22.624 22.624l28.688 28.688-28.688 28.688a15.984 15.984 0 0 0 0 22.624z m115.312-92.688l41.376 41.376-41.376 41.376-41.376-41.376 41.376-41.376z" fill="" p-id="6617"></path><path d="M208 298.56m-16 0a16 16 0 1 0 32 0 16 16 0 1 0-32 0Z" fill="" p-id="6618"></path></svg>