<?xml version="1.0" standalone="no"?><!DOCTYPE svg PUBLIC "-//W3C//DTD SVG 1.1//EN" "http://www.w3.org/Graphics/SVG/1.1/DTD/svg11.dtd"><svg t="1605016815632" class="icon" viewBox="0 0 1024 1024" version="1.1" xmlns="http://www.w3.org/2000/svg" p-id="6102" xmlns:xlink="http://www.w3.org/1999/xlink" width="200" height="200"><defs><style type="text/css"></style></defs><path d="M512 426.666667V170.666667h-42.666667v256h42.666667z m42.666667 0h384a426.496 426.496 0 0 1-213.333334 369.578666V938.666667H298.666667v-142.421334A426.496 426.496 0 0 1 85.333333 426.666667h170.666667V256H170.666667V128h768v128h-384v170.666667z m-256 0h42.666666V170.666667H298.666667v256z m85.333333-256v256h42.666667V170.666667H384z m509.653333 298.666666H130.346667a383.829333 383.829333 0 0 0 189.696 290.005334l14.976 8.661333h353.962666l14.976-8.661333A383.829333 383.829333 0 0 0 893.653333 469.333333zM554.666667 213.333333h341.333333V170.666667h-341.333333v42.666666zM256 170.666667H213.333333v42.666666h42.666667V170.666667z m426.666667 640H341.333333v85.333333h341.333334v-85.333333z" p-id="6103"></path></svg>